<svg width="34" height="34" viewBox="0 0 34 34" fill="none" xmlns="http://www.w3.org/2000/svg">
<circle cx="17" cy="17" r="17" fill="#6495ED"/>
<path d="M11.858 23V20.9773L16.1023 17.2614C16.4205 16.9735 16.6913 16.7102 16.9148 16.4716C17.1383 16.2292 17.3087 15.9867 17.4261 15.7443C17.5436 15.4981 17.6023 15.2311 17.6023 14.9432C17.6023 14.6212 17.5322 14.3466 17.392 14.1193C17.2519 13.8883 17.0587 13.7102 16.8125 13.5852C16.5663 13.4602 16.2841 13.3977 15.9659 13.3977C15.6439 13.3977 15.3617 13.464 15.1193 13.5966C14.8769 13.7254 14.6875 13.9129 14.5511 14.1591C14.4186 14.4053 14.3523 14.7045 14.3523 15.0568H11.6875C11.6875 14.2652 11.8655 13.5814 12.2216 13.0057C12.5777 12.4299 13.0777 11.9867 13.7216 11.6761C14.3693 11.3617 15.1212 11.2045 15.9773 11.2045C16.8598 11.2045 17.6269 11.3523 18.2784 11.6477C18.9299 11.9432 19.4337 12.3561 19.7898 12.8864C20.1496 13.4129 20.3295 14.0246 20.3295 14.7216C20.3295 15.1648 20.2405 15.6042 20.0625 16.0398C19.8845 16.4754 19.5644 16.9564 19.1023 17.483C18.6439 18.0095 17.9924 18.6402 17.1477 19.375L15.7557 20.6591V20.733H20.4716V23H11.858Z" fill="#F0FFFF"/>
</svg>
