<svg width="34" height="34" viewBox="0 0 34 34" fill="none" xmlns="http://www.w3.org/2000/svg">
<circle cx="17" cy="17" r="17" fill="#6495ED"/>
<path d="M16.2841 23.1591C15.3977 23.1591 14.6117 23.0076 13.9261 22.7045C13.2443 22.3977 12.7064 21.9754 12.3125 21.4375C11.9186 20.8996 11.7178 20.2803 11.7102 19.5795H14.5398C14.5511 19.8333 14.6326 20.0587 14.7841 20.2557C14.9356 20.4489 15.142 20.6004 15.4034 20.7102C15.6648 20.8201 15.9621 20.875 16.2955 20.875C16.6288 20.875 16.9223 20.8163 17.1761 20.6989C17.4337 20.5777 17.6345 20.4129 17.7784 20.2045C17.9223 19.9924 17.9924 19.75 17.9886 19.4773C17.9924 19.2045 17.9148 18.9621 17.7557 18.75C17.5966 18.5379 17.3712 18.3731 17.0795 18.2557C16.7917 18.1383 16.4508 18.0795 16.0568 18.0795H14.9261V16.0795H16.0568C16.4015 16.0795 16.7045 16.0227 16.9659 15.9091C17.2311 15.7955 17.4375 15.6364 17.5852 15.4318C17.733 15.2235 17.8049 14.9848 17.8011 14.7159C17.8049 14.4545 17.7424 14.2254 17.6136 14.0284C17.4886 13.8277 17.3125 13.6723 17.0852 13.5625C16.8617 13.4527 16.6023 13.3977 16.3068 13.3977C15.9962 13.3977 15.714 13.4527 15.4602 13.5625C15.2102 13.6723 15.0114 13.8277 14.8636 14.0284C14.7159 14.2292 14.6383 14.4621 14.6307 14.7273H11.9432C11.9508 14.0341 12.1439 13.4242 12.5227 12.8977C12.9015 12.3674 13.4167 11.9527 14.0682 11.6534C14.7235 11.3542 15.4697 11.2045 16.3068 11.2045C17.1402 11.2045 17.8731 11.3504 18.5057 11.642C19.1383 11.9337 19.6307 12.3314 19.983 12.8352C20.3352 13.3352 20.5114 13.9015 20.5114 14.5341C20.5152 15.1894 20.3011 15.7292 19.8693 16.1534C19.4413 16.5777 18.8902 16.839 18.2159 16.9375V17.0284C19.1174 17.1345 19.7973 17.4261 20.2557 17.9034C20.7178 18.3807 20.947 18.9773 20.9432 19.6932C20.9432 20.3674 20.7443 20.9659 20.3466 21.4886C19.9527 22.0076 19.4034 22.4167 18.6989 22.7159C17.9981 23.0114 17.1932 23.1591 16.2841 23.1591Z" fill="#F0FFFF"/>
</svg>
